<svg xmlns="http://www.w3.org/2000/svg" width="1920" height="1080" fill="none" viewBox="0 0 1920 1080">
  <path stroke="#49437D" stroke-linecap="round" stroke-width="3" d="M2012.76 138.667c-9.82-30.68-63.41-39.186-88.93-43.489-56.85-9.586-130.05-15.458-177.5 24.491-77 64.824 62.27 126.369 111.47 137.332 10.01 2.232 29.68 7.353 39.83.915 12.14-7.704.83-34.496-2.41-42.916-12.94-33.679-31.76-65.624-50.93-96.017-45.52-72.195-99.11-138.555-148.77-207.83-36.93-51.523-77.87-107.444-85.26-172.35-.15-1.274-1.26-26.041-1.26-18.311M-160 836.355c175.885 17.201 354.672 28.437 525.523-27.467 39.268-12.849 98.133-31.872 119.707-71.641 20.56-37.899-28.197-68.458-57.908-75.532-35.483-8.449-69.633-10.329-105.059 2.632-50.057 18.313-73.517 41.311-80.224 97.505-8.693 72.826 19.386 139.331 58.022 199.246 56.001 86.842 113.396 133.912 197.186 192.722 57.331 40.24 129.853 83.42 198.444 105.17 4.734 1.5.797-.8-.801-2.4m947.6-61.84c26.25-11.11 50.64-32.63 72.44-50.13 24.52-19.69 44.29-36.84 67.87-57.91 28.87-25.8 60.64-52.42 84.68-83.08 135.97-173.411-242.79-285.034-257.95-169.151-7.89 60.318 74.57 102.536 119.25 120.394 94.89 37.931 200.77 56.107 301.78 67.297 44.85 4.96 82.12 7.38 126.92 8.69 32.86.96 69.93 3.15 102.54-4.57 20.69-4.9 8.58-15.7.46-25.18m-1420.616 79.76c1.125-11.17-6.568-23.36-10.529-33.4-5.865-14.87-9.895-31.96-12.689-47.672-7.55-42.457-4.759-97.537 8.288-138.67 12.301-38.783 30.023-84.546 65.336-107.442 55.241-35.814 126.72-29.128 188.97-41.904 58.46-11.996 114.41-30.309 152.09-79.421 48.21-62.819 48.15-154.177 35.56-228.056-24.86-145.897-64.43-290.075-60.59-439.387.96-37.506 5.51-75.119 4.52-112.661-.26-9.886 1.15-20.248-4.81-28.257m-888.491 49.173c0 73.58 6.159 146.683-19.893 216.944C255.296 204.28 164.577 303.59 66.266 372.36c-55.404 38.757-114.346 70.378-175.14 99.607-17.997 8.652-36.267 20.603-56.218 23.928"/>
</svg>
